<svg width="30" height="29" viewBox="0 0 30 29" fill="none" xmlns="http://www.w3.org/2000/svg">
<path opacity="0.15" d="M15.343 26.391C21.9534 26.391 27.3119 21.0325 27.3119 14.4221C27.3119 7.81161 21.9534 2.45312 15.343 2.45312C8.73251 2.45312 3.37402 7.81161 3.37402 14.4221C3.37402 21.0325 8.73251 26.391 15.343 26.391Z" fill="#FFB627"/>
<path d="M15.7378 20.4081C15.5224 20.4799 15.1514 20.4799 14.9359 20.4081C13.0688 19.7738 8.87964 17.1047 8.87964 12.5804C8.87964 10.5816 10.4835 8.96582 12.4703 8.96582C13.6433 8.96582 14.6846 9.52836 15.3429 10.4141C15.9892 9.54033 17.0424 8.96582 18.2154 8.96582C20.2022 8.96582 21.8061 10.5816 21.8061 12.5804C21.8061 17.1047 17.617 19.7738 15.7378 20.4081Z" fill="#FFB627"/>
</svg>
