<svg width="100" height="18" viewBox="0 0 100 18" fill="none" xmlns="http://www.w3.org/2000/svg">
<path d="M8.82316 12.8158L13.3673 15.5585L12.1614 10.3894L16.1761 6.91142L10.8893 6.46289L8.82316 1.58789L6.75698 6.46289L1.47021 6.91142L5.48492 10.3894L4.27904 15.5585L8.82316 12.8158Z" fill="#FFB627"/>
<path d="M29.412 12.8158L33.9561 15.5585L32.7503 10.3894L36.765 6.91142L31.4782 6.46289L29.412 1.58789L27.3458 6.46289L22.0591 6.91142L26.0738 10.3894L24.8679 15.5585L29.412 12.8158Z" fill="#FFB627"/>
<path d="M49.9997 12.8158L54.5438 15.5585L53.3379 10.3894L57.3526 6.91142L52.0658 6.46289L49.9997 1.58789L47.9335 6.46289L42.6467 6.91142L46.6614 10.3894L45.4556 15.5585L49.9997 12.8158Z" fill="#FFB627"/>
<path d="M70.589 12.8158L75.1331 15.5585L73.9273 10.3894L77.942 6.91142L72.6552 6.46289L70.589 1.58789L68.5228 6.46289L63.2361 6.91142L67.2508 10.3894L66.0449 15.5585L70.589 12.8158Z" fill="#AAAAAA" fill-opacity="0.4"/>
<path d="M91.1762 12.8158L95.7203 15.5585L94.5144 10.3894L98.5291 6.91142L93.2424 6.46289L91.1762 1.58789L89.11 6.46289L83.8232 6.91142L87.8379 10.3894L86.6321 15.5585L91.1762 12.8158Z" fill="#AAAAAA" fill-opacity="0.4"/>
</svg>
